REM DIRINDEX 1\2,1\3\7,1\3\8,1\4\9,1\4\10,1\4\11,1\5\12,1\5\13,1\5\14,1\6\15,1\6\16,1\6\17
REM DIRNAME "folder01","folder02","folder03","folder04","folder05","folder06","folder07","folder08","folder09","folder10","folder11","folder12","folder13","folder14","folder15","folder16","folder17"
TITLE ""
FILE "2Q_t_0201-0217.mp3" MP3
  TRACK 01 AUDIO
    TITLE "0:"
    INDEX 01 00:00:00
  TRACK 02 AUDIO
    TITLE "2:cjc174_2139"
    INDEX 01 00:00:08
  TRACK 03 AUDIO
    TITLE "0:"
    INDEX 01 00:01:45
  TRACK 04 AUDIO
    TITLE "2:cjc174_2140"
    INDEX 01 00:02:19
  TRACK 05 AUDIO
    TITLE "0:"
    INDEX 01 00:03:26
  TRACK 06 AUDIO
    TITLE "7:cjc174_2141"
    INDEX 01 00:03:69
  TRACK 07 AUDIO
    TITLE "0:"
    INDEX 01 00:05:06
  TRACK 08 AUDIO
    TITLE "8:cjc174_2142"
    INDEX 01 00:05:53
  TRACK 09 AUDIO
    TITLE "0:"
    INDEX 01 00:06:70
  TRACK 10 AUDIO
    TITLE "7:cjc174_2143"
    INDEX 01 00:07:38
  TRACK 11 AUDIO
    TITLE "0:"
    INDEX 01 00:08:55
  TRACK 12 AUDIO
    TITLE "8:cjc174_2144"
    INDEX 01 00:09:31
  TRACK 13 AUDIO
    TITLE "0:"
    INDEX 01 00:10:46
  TRACK 14 AUDIO
    TITLE "7:cjc174_2145"
    INDEX 01 00:11:14
  TRACK 15 AUDIO
    TITLE "0:"
    INDEX 01 00:12:29
  TRACK 16 AUDIO
    TITLE "8:cjc174_2146"
    INDEX 01 00:12:74
  TRACK 17 AUDIO
    TITLE "0:"
    INDEX 01 00:16:33
  TRACK 18 AUDIO
    TITLE "7:cjc174_2147"
    INDEX 01 00:16:72
  TRACK 19 AUDIO
    TITLE "0:"
    INDEX 01 00:18:20
  TRACK 20 AUDIO
    TITLE "8:cjc174_2148"
    INDEX 01 00:18:63
  TRACK 21 AUDIO
    TITLE "0:"
    INDEX 01 00:21:61
  TRACK 22 AUDIO
    TITLE "7:cjc174_2149"
    INDEX 01 00:22:31
  TRACK 23 AUDIO
    TITLE "0:"
    INDEX 01 00:23:54
  TRACK 24 AUDIO
    TITLE "8:cjc174_2150"
    INDEX 01 00:24:26
  TRACK 25 AUDIO
    TITLE "0:"
    INDEX 01 00:25:59
  TRACK 26 AUDIO
    TITLE "7:cjc174_2151"
    INDEX 01 00:26:29
  TRACK 27 AUDIO
    TITLE "0:"
    INDEX 01 00:27:64
  TRACK 28 AUDIO
    TITLE "8:cjc174_2152"
    INDEX 01 00:28:34
  TRACK 29 AUDIO
    TITLE "0:"
    INDEX 01 00:31:23
  TRACK 30 AUDIO
    TITLE "7:cjc174_2153"
    INDEX 01 00:31:66
  TRACK 31 AUDIO
    TITLE "0:"
    INDEX 01 00:33:14
  TRACK 32 AUDIO
    TITLE "8:cjc174_2154"
    INDEX 01 00:33:59
  TRACK 33 AUDIO
    TITLE "0:"
    INDEX 01 00:36:36
  TRACK 34 AUDIO
    TITLE "7:cjc174_2155"
    INDEX 01 00:37:04
  TRACK 35 AUDIO
    TITLE "0:"
    INDEX 01 00:38:17
  TRACK 36 AUDIO
    TITLE "8:cjc174_2156"
    INDEX 01 00:38:62
  TRACK 37 AUDIO
    TITLE "0:"
    INDEX 01 00:41:62
  TRACK 38 AUDIO
    TITLE "7:cjc174_2157"
    INDEX 01 00:42:32
  TRACK 39 AUDIO
    TITLE "0:"
    INDEX 01 00:43:41
  TRACK 40 AUDIO
    TITLE "8:cjc174_2158"
    INDEX 01 00:44:12
  TRACK 41 AUDIO
    TITLE "0:"
    INDEX 01 00:46:12
  TRACK 42 AUDIO
    TITLE "7:cjc174_2159"
    INDEX 01 00:46:57
  TRACK 43 AUDIO
    TITLE "0:"
    INDEX 01 00:47:55
  TRACK 44 AUDIO
    TITLE "8:cjc174_2160"
    INDEX 01 00:48:29
  TRACK 45 AUDIO
    TITLE "0:"
    INDEX 01 00:52:27
  TRACK 46 AUDIO
    TITLE "7:cjc174_2161"
    INDEX 01 00:52:70
  TRACK 47 AUDIO
    TITLE "0:"
    INDEX 01 00:54:20
  TRACK 48 AUDIO
    TITLE "8:cjc174_2162"
    INDEX 01 00:55:03
  TRACK 49 AUDIO
    TITLE "0:"
    INDEX 01 00:56:25
  TRACK 50 AUDIO
    TITLE "7:cjc174_2163"
    INDEX 01 00:56:68
  TRACK 51 AUDIO
    TITLE "0:"
    INDEX 01 00:58:12
  TRACK 52 AUDIO
    TITLE "8:cjc174_2164"
    INDEX 01 00:58:57
  TRACK 53 AUDIO
    TITLE "0:"
    INDEX 01 01:01:41
  TRACK 54 AUDIO
    TITLE "7:cjc174_2165"
    INDEX 01 01:02:09
  TRACK 55 AUDIO
    TITLE "0:"
    INDEX 01 01:03:05
  TRACK 56 AUDIO
    TITLE "8:cjc174_2166"
    INDEX 01 01:03:54
  TRACK 57 AUDIO
    TITLE "0:"
    INDEX 01 01:06:60
  TRACK 58 AUDIO
    TITLE "7:cjc174_2167"
    INDEX 01 01:07:30
  TRACK 59 AUDIO
    TITLE "0:"
    INDEX 01 01:08:47
  TRACK 60 AUDIO
    TITLE "8:cjc174_2168"
    INDEX 01 01:09:31
  TRACK 61 AUDIO
    TITLE "0:"
    INDEX 01 01:10:62
  TRACK 62 AUDIO
    TITLE "7:cjc174_2169"
    INDEX 01 01:11:32
  TRACK 63 AUDIO
    TITLE "0:"
    INDEX 01 01:12:49
  TRACK 64 AUDIO
    TITLE "8:cjc174_2170"
    INDEX 01 01:13:33
  TRACK 65 AUDIO
    TITLE "0:"
    INDEX 01 01:16:17
  TRACK 66 AUDIO
    TITLE "7:cjc174_2171"
    INDEX 01 01:16:60
  TRACK 67 AUDIO
    TITLE "0:"
    INDEX 01 01:18:03
  TRACK 68 AUDIO
    TITLE "8:cjc174_2172"
    INDEX 01 01:18:52
  TRACK 69 AUDIO
    TITLE "0:"
    INDEX 01 01:20:52
  TRACK 70 AUDIO
    TITLE "7:cjc174_2173"
    INDEX 01 01:21:22
  TRACK 71 AUDIO
    TITLE "0:"
    INDEX 01 01:22:34
  TRACK 72 AUDIO
    TITLE "8:cjc174_2174"
    INDEX 01 01:23:04
  TRACK 73 AUDIO
    TITLE "0:"
    INDEX 01 01:24:29
